<svg width="54" height="44" viewBox="0 0 54 44" fill="none" xmlns="http://www.w3.org/2000/svg">
<path fill-rule="evenodd" clip-rule="evenodd" d="M4.2568 39.917C2.56868 39.917 1.2002 38.5485 1.2002 36.8604L1.2002 4.25662C1.2002 2.5685 2.56868 1.20001 4.2568 1.20001L19.7436 1.20001C21.4317 1.20001 22.8002 2.5685 22.8002 4.25662L22.8002 36.8604C22.8002 38.5485 21.4317 39.917 19.7436 39.917L4.2568 39.917ZM3.23793 36.8604C3.23793 37.4231 3.69409 37.8793 4.2568 37.8793L19.7436 37.8793C20.3063 37.8793 20.7625 37.4231 20.7625 36.8604L20.7625 4.25662C20.7625 3.69391 20.3063 3.23775 19.7436 3.23775L4.2568 3.23775C3.69409 3.23775 3.23793 3.69391 3.23793 4.25662L3.23793 36.8604Z" fill="black"/>
<rect x="7.9248" y="5.27539" width="8.15094" height="2.03774" fill="black"/>
<ellipse cx="11.8984" cy="34.3132" rx="1.5283" ry="1.5283" fill="black"/>
<path d="M34.976 5.65936C32.0716 5.02039 29.8606 6.81928 28.4798 8.51952C27.4084 9.83988 26.845 9.69973 27.4688 8.11751C28.7753 4.80325 32.0195 1.29582 36.52 1.29536L42.584 1.29513C42.9242 1.29559 43.2004 1.57865 43.3232 1.89606C43.4811 2.30706 44.0982 2.47741 44.6846 2.47787C45.2699 2.47718 45.8867 2.30752 46.0451 1.89606C46.1684 1.57819 46.4439 1.29536 46.7841 1.29582L49.3902 1.29489C50.0679 1.29536 50.6219 1.84927 50.6219 2.52651L50.6216 6.00098C50.6223 6.67891 50.0677 7.23351 49.39 7.23259L46.7841 7.23328C46.4441 7.23305 46.1675 6.94998 46.0451 6.63303C45.886 6.22088 45.2701 6.05169 44.6844 6.051C43.7536 6.05054 42.5473 6.95482 42.4604 8.78991L37.9756 8.79037C37.7396 6.83934 36.0981 5.90877 34.976 5.65936Z" fill="#F93D3D"/>
<path d="M37.321 38.4682L37.9593 10.6031L42.5033 10.6028L43.1391 38.4677C43.173 39.2877 42.5342 39.9513 41.7141 39.9518L38.7454 39.9511C37.9263 39.9508 37.2883 39.2874 37.321 38.4682Z" fill="#F93D3D"/>
</svg>
