<svg width="48" height="58" viewBox="0 0 48 58" fill="none" xmlns="http://www.w3.org/2000/svg">
<path fill-rule="evenodd" clip-rule="evenodd" d="M21.6002 2.4C18.2865 2.4 15.6002 5.08629 15.6002 8.4C15.6002 11.7137 18.2865 14.4 21.6002 14.4C24.9139 14.4 27.6002 11.7137 27.6002 8.4C27.6002 5.08629 24.9139 2.4 21.6002 2.4ZM13.2002 8.4C13.2002 3.76081 16.961 0 21.6002 0C26.2394 0 30.0002 3.76081 30.0002 8.4C30.0002 13.0392 26.2394 16.8 21.6002 16.8C16.961 16.8 13.2002 13.0392 13.2002 8.4Z" fill="black"/>
<path d="M42 18C42 24.6274 36.6274 30 30 30C23.3726 30 18 24.6274 18 18C18 11.3726 23.3726 6 30 6C36.6274 6 42 11.3726 42 18Z" fill="white"/>
<path d="M43.2001 20.4C43.2001 26.3647 38.3648 31.2 32.4001 31.2C26.4354 31.2 21.6001 26.3647 21.6001 20.4C21.6001 14.4353 26.4354 9.59998 32.4001 9.59998C38.3648 9.59998 43.2001 14.4353 43.2001 20.4Z" fill="white"/>
<path fill-rule="evenodd" clip-rule="evenodd" d="M32.3999 10.8C27.098 10.8 22.7999 15.0981 22.7999 20.4C22.7999 25.702 27.098 30 32.3999 30C37.7018 30 41.9999 25.702 41.9999 20.4C41.9999 15.0981 37.7018 10.8 32.3999 10.8ZM20.3999 20.4C20.3999 13.7726 25.7725 8.40002 32.3999 8.40002C39.0273 8.40002 44.3999 13.7726 44.3999 20.4C44.3999 27.0274 39.0273 32.4 32.3999 32.4C25.7725 32.4 20.3999 27.0274 20.3999 20.4Z" fill="black"/>
<path d="M31.1999 33.6C31.1999 41.5529 24.7528 48 16.7999 48C8.847 48 2.3999 41.5529 2.3999 33.6C2.3999 25.6471 8.847 19.2 16.7999 19.2C24.7528 19.2 31.1999 25.6471 31.1999 33.6Z" fill="#F93D3D"/>
<path fill-rule="evenodd" clip-rule="evenodd" d="M33.6 33.6C33.6 42.8784 26.0784 50.4 16.8 50.4C7.52162 50.4 0 42.8784 0 33.6C0 24.3217 7.52162 16.8 16.8 16.8C26.0784 16.8 33.6 24.3217 33.6 33.6ZM16.8 48C24.7529 48 31.2 41.5529 31.2 33.6C31.2 25.6471 24.7529 19.2 16.8 19.2C8.8471 19.2 2.4 25.6471 2.4 33.6C2.4 41.5529 8.8471 48 16.8 48Z" fill="#F93D3D"/>
<path d="M9.25684 37.7183V35.7863H11.3064V34.9463H9.25684V32.8799H11.3064V28.0079H19.7568C20.9776 28.0079 21.8904 28.3271 22.4952 28.9655C23.1 29.5927 23.4024 30.4551 23.4024 31.5527C23.4024 32.6167 23.1 33.4511 22.4952 34.0559C21.8904 34.6495 20.9776 34.9463 19.7568 34.9463H14.364V35.7863H20.412V37.7183H14.364V39.5999H11.3064V37.7183H9.25684ZM20.2104 31.7039V31.4855C20.2104 31.1383 20.104 30.8695 19.8912 30.6791C19.6784 30.4775 19.3424 30.3767 18.8832 30.3767H14.364V32.8127H18.8832C19.3424 32.8127 19.6784 32.7175 19.8912 32.5271C20.104 32.3255 20.2104 32.0511 20.2104 31.7039Z" fill="white"/>
</svg>
