<svg width="66" height="66" viewBox="0 0 66 66" fill="none" xmlns="http://www.w3.org/2000/svg">
<path d="M10.1429 1H1V10.1429H10.1429V1Z" stroke="white" stroke-width="0.285" stroke-miterlimit="10"/>
<path d="M19.2859 1H10.1431V10.1429H19.2859V1Z" stroke="white" stroke-width="0.285" stroke-miterlimit="10"/>
<path d="M28.4285 1H19.2856V10.1429H28.4285V1Z" stroke="white" stroke-width="0.285" stroke-miterlimit="10"/>
<path d="M37.5711 1H28.4282V10.1429H37.5711V1Z" stroke="white" stroke-width="0.285" stroke-miterlimit="10"/>
<path d="M46.7147 1H37.5718V10.1429H46.7147V1Z" stroke="white" stroke-width="0.285" stroke-miterlimit="10"/>
<path d="M55.8572 1H46.7144V10.1429H55.8572V1Z" stroke="white" stroke-width="0.285" stroke-miterlimit="10"/>
<path d="M64.9998 1H55.8569V10.1429H64.9998V1Z" stroke="white" stroke-width="0.285" stroke-miterlimit="10"/>
<path d="M10.1429 10.1421H1V19.285H10.1429V10.1421Z" stroke="white" stroke-width="0.285" stroke-miterlimit="10"/>
<path d="M19.2859 10.1416H10.1431V19.2845H19.2859V10.1416Z" stroke="white" stroke-width="0.285" stroke-miterlimit="10"/>
<path d="M28.4285 10.1416H19.2856V19.2845H28.4285V10.1416Z" stroke="white" stroke-width="0.285" stroke-miterlimit="10"/>
<path d="M37.5711 10.1416H28.4282V19.2845H37.5711V10.1416Z" stroke="white" stroke-width="0.285" stroke-miterlimit="10"/>
<path d="M46.7147 10.1416H37.5718V19.2845H46.7147V10.1416Z" stroke="white" stroke-width="0.285" stroke-miterlimit="10"/>
<path d="M55.8572 10.1416H46.7144V19.2845H55.8572V10.1416Z" stroke="white" stroke-width="0.285" stroke-miterlimit="10"/>
<path d="M64.9998 10.1416H55.8569V19.2845H64.9998V10.1416Z" stroke="white" stroke-width="0.285" stroke-miterlimit="10"/>
<path d="M10.1429 19.2856H1V28.4285H10.1429V19.2856Z" stroke="white" stroke-width="0.285" stroke-miterlimit="10"/>
<path d="M19.2859 19.2856H10.1431V28.4285H19.2859V19.2856Z" stroke="white" stroke-width="0.285" stroke-miterlimit="10"/>
<path d="M28.4285 19.2856H19.2856V28.4285H28.4285V19.2856Z" stroke="white" stroke-width="0.285" stroke-miterlimit="10"/>
<path d="M37.5711 19.2856H28.4282V28.4285H37.5711V19.2856Z" stroke="white" stroke-width="0.285" stroke-miterlimit="10"/>
<path d="M46.7147 19.2856H37.5718V28.4285H46.7147V19.2856Z" stroke="white" stroke-width="0.285" stroke-miterlimit="10"/>
<path d="M55.8572 19.2856H46.7144V28.4285H55.8572V19.2856Z" stroke="white" stroke-width="0.285" stroke-miterlimit="10"/>
<path d="M64.9998 19.2856H55.8569V28.4285H64.9998V19.2856Z" stroke="white" stroke-width="0.285" stroke-miterlimit="10"/>
<path d="M10.1429 28.4292H1V37.5721H10.1429V28.4292Z" stroke="white" stroke-width="0.285" stroke-miterlimit="10"/>
<path d="M19.2859 28.4287H10.1431V37.5716H19.2859V28.4287Z" stroke="white" stroke-width="0.285" stroke-miterlimit="10"/>
<path d="M28.4285 28.4287H19.2856V37.5716H28.4285V28.4287Z" stroke="white" stroke-width="0.285" stroke-miterlimit="10"/>
<path d="M37.5711 28.4287H28.4282V37.5716H37.5711V28.4287Z" stroke="white" stroke-width="0.285" stroke-miterlimit="10"/>
<path d="M46.7147 28.4287H37.5718V37.5716H46.7147V28.4287Z" stroke="white" stroke-width="0.285" stroke-miterlimit="10"/>
<path d="M55.8572 28.4287H46.7144V37.5716H55.8572V28.4287Z" stroke="white" stroke-width="0.285" stroke-miterlimit="10"/>
<path d="M64.9998 28.4287H55.8569V37.5716H64.9998V28.4287Z" stroke="white" stroke-width="0.285" stroke-miterlimit="10"/>
<path d="M10.1429 37.5718H1V46.7147H10.1429V37.5718Z" stroke="white" stroke-width="0.285" stroke-miterlimit="10"/>
<path d="M19.2859 37.5713H10.1431V46.7142H19.2859V37.5713Z" stroke="white" stroke-width="0.285" stroke-miterlimit="10"/>
<path d="M28.4285 37.5713H19.2856V46.7142H28.4285V37.5713Z" stroke="white" stroke-width="0.285" stroke-miterlimit="10"/>
<path d="M37.5711 37.5713H28.4282V46.7142H37.5711V37.5713Z" stroke="white" stroke-width="0.285" stroke-miterlimit="10"/>
<path d="M46.7147 37.5713H37.5718V46.7142H46.7147V37.5713Z" stroke="white" stroke-width="0.285" stroke-miterlimit="10"/>
<path d="M55.8572 37.5713H46.7144V46.7142H55.8572V37.5713Z" stroke="white" stroke-width="0.285" stroke-miterlimit="10"/>
<path d="M64.9998 37.5713H55.8569V46.7142H64.9998V37.5713Z" stroke="white" stroke-width="0.285" stroke-miterlimit="10"/>
<path d="M10.1429 46.7144H1V55.8572H10.1429V46.7144Z" stroke="white" stroke-width="0.285" stroke-miterlimit="10"/>
<path d="M19.2859 46.7148H10.1431V55.8577H19.2859V46.7148Z" stroke="white" stroke-width="0.285" stroke-miterlimit="10"/>
<path d="M28.4285 46.7148H19.2856V55.8577H28.4285V46.7148Z" stroke="white" stroke-width="0.285" stroke-miterlimit="10"/>
<path d="M37.5711 46.7148H28.4282V55.8577H37.5711V46.7148Z" stroke="white" stroke-width="0.285" stroke-miterlimit="10"/>
<path d="M46.7147 46.7148H37.5718V55.8577H46.7147V46.7148Z" stroke="white" stroke-width="0.285" stroke-miterlimit="10"/>
<path d="M55.8572 46.7148H46.7144V55.8577H55.8572V46.7148Z" stroke="white" stroke-width="0.285" stroke-miterlimit="10"/>
<path d="M64.9998 46.7148H55.8569V55.8577H64.9998V46.7148Z" stroke="white" stroke-width="0.285" stroke-miterlimit="10"/>
<path d="M10.1429 55.8564H1V64.9993H10.1429V55.8564Z" stroke="white" stroke-width="0.285" stroke-miterlimit="10"/>
<path d="M19.2859 55.8564H10.1431V64.9993H19.2859V55.8564Z" stroke="white" stroke-width="0.285" stroke-miterlimit="10"/>
<path d="M28.4285 55.8564H19.2856V64.9993H28.4285V55.8564Z" stroke="white" stroke-width="0.285" stroke-miterlimit="10"/>
<path d="M37.5711 55.8564H28.4282V64.9993H37.5711V55.8564Z" stroke="white" stroke-width="0.285" stroke-miterlimit="10"/>
<path d="M46.7147 55.8564H37.5718V64.9993H46.7147V55.8564Z" stroke="white" stroke-width="0.285" stroke-miterlimit="10"/>
<path d="M55.8572 55.8564H46.7144V64.9993H55.8572V55.8564Z" stroke="white" stroke-width="0.285" stroke-miterlimit="10"/>
<path d="M64.9998 55.8564H55.8569V64.9993H64.9998V55.8564Z" stroke="white" stroke-width="0.285" stroke-miterlimit="10"/>
<path d="M55.8575 10.1426H10.1431V19.2855H55.8575V10.1426Z" fill="white"/>
<path d="M37.5711 28.4292H28.4282V55.8578H37.5711V28.4292Z" fill="white"/>
<path d="M37.5711 19.2856L28.4282 28.4285H37.5711V19.2856Z" fill="white"/>
</svg>
