<svg width="113" height="27" fill="none" xmlns="http://www.w3.org/2000/svg"><path d="M56.616 14.73a4.093 4.093 0 104.112 4.092 4.034 4.034 0 00-4.112-4.093zm0 6.576a2.484 2.484 0 112.311-2.484 2.369 2.369 0 01-2.31 2.484zm-8.965-6.577a4.092 4.092 0 104.102 4.093 4.036 4.036 0 00-4.112-4.093h.01zm0 6.577a2.483 2.483 0 01-.739-4.899 2.484 2.484 0 013.04 2.415 2.367 2.367 0 01-2.31 2.484h.009zm-10.68-5.315v1.733h4.16a3.63 3.63 0 01-.962 2.186 4.254 4.254 0 01-3.207 1.271 4.622 4.622 0 010-9.244 4.43 4.43 0 013.149 1.242l1.223-1.223a6.058 6.058 0 00-4.362-1.8 6.364 6.364 0 100 12.72 5.777 5.777 0 004.439-1.782 5.778 5.778 0 001.502-4.063c.003-.365-.03-.73-.096-1.088l-5.845.048zm43.633 1.348a3.853 3.853 0 00-3.506-2.61 3.853 3.853 0 00-3.852 4.093 4.007 4.007 0 004.064 4.093 4.074 4.074 0 003.409-1.81l-1.396-.964a2.34 2.34 0 01-2.013 1.136 2.08 2.08 0 01-1.984-1.242l5.48-2.263-.203-.433zm-5.586 1.367a2.245 2.245 0 012.138-2.388 1.588 1.588 0 011.521.867l-3.659 1.521zm-4.449 3.968h1.801V10.637h-1.8v12.037zm-2.946-7.03h-.068a2.888 2.888 0 00-2.157-.963 4.102 4.102 0 000 8.195 2.793 2.793 0 002.157-.963h.058v.587c0 1.57-.838 2.408-2.186 2.408a2.263 2.263 0 01-2.06-1.454l-1.57.654a3.9 3.9 0 003.63 2.418c2.11 0 3.852-1.243 3.852-4.266v-7.29h-1.656v.674zm-2.061 5.662a2.494 2.494 0 010-4.969 2.31 2.31 0 012.186 2.485 2.292 2.292 0 01-2.196 2.484h.01zm23.477-10.67h-4.304v12.038h1.8v-4.565h2.514a3.746 3.746 0 100-7.472h-.01zm0 5.779h-2.513v-4.103h2.552a2.066 2.066 0 010 4.131l-.039-.029zm11.103-1.734a3.37 3.37 0 00-3.207 1.84l1.599.664a1.705 1.705 0 011.637-.886 1.732 1.732 0 011.926 1.55v.125a3.981 3.981 0 00-1.878-.462c-1.724 0-3.467.963-3.467 2.706a2.784 2.784 0 002.986 2.648 2.535 2.535 0 002.311-1.155h.057v.963h1.734v-4.632c0-2.109-1.599-3.332-3.65-3.332l-.048-.029zm-.221 6.596c-.588 0-1.406-.298-1.406-1.02 0-.963 1.02-1.281 1.925-1.281a3.2 3.2 0 011.638.404 2.179 2.179 0 01-2.11 1.926l-.047-.029zm10.236-6.307l-2.061 5.22h-.058l-2.137-5.22h-1.926l3.206 7.3-1.829 4.053h1.877l4.931-11.353h-2.003zm-16.188 7.704h1.801V10.637h-1.8v12.037zM31.551 7.527h-.712V5.6h.606a2.753 2.753 0 00.732-2.215V.526h3.852V5.59h.645v1.926h-.713V6.304h-4.41v1.223zm1.339-4.112a3.852 3.852 0 01-.55 2.215h2.89V1.239h-2.34v2.176zm9.543 2.138a3.005 3.005 0 01-4.237 0 3.12 3.12 0 010-4.286 2.985 2.985 0 014.237 0 3.11 3.11 0 010 4.286zm-3.689-.482a2.224 2.224 0 003.14 0 2.465 2.465 0 000-3.312 2.225 2.225 0 00-3.14 0 2.465 2.465 0 000 3.312zm8.282 1.358a2.947 2.947 0 01-3.005-3.014A2.947 2.947 0 0147.026.4a2.667 2.667 0 012.118.963l-.52.5a1.926 1.926 0 00-1.608-.731 2.186 2.186 0 00-1.598.635 2.475 2.475 0 000 3.342 2.187 2.187 0 001.598.635 2.282 2.282 0 001.763-.857l.52.52a2.823 2.823 0 01-.963.751 3.033 3.033 0 01-1.31.27zm5.296-.125h-.741V1.239h-1.618V.526h3.967v.713h-1.608v5.065zM59.034.526l-2.186 4.873a1.454 1.454 0 01-1.329 1.03 1.484 1.484 0 01-.578-.125l.193-.684a.78.78 0 00.385.106.684.684 0 00.405-.096.906.906 0 00.26-.366l.212-.463L54.47.536h.876l1.425 3.312L58.158.526h.876zm.838 5.778V.526h4.18v5.778h-.742V1.239h-2.697v5.065h-.741zm5.498 0V.526h.742V3H69V.526h.741v5.778H69v-2.61h-2.89v2.61h-.74zm10.43-.751a3.004 3.004 0 01-4.238 0 3.12 3.12 0 010-4.286 2.985 2.985 0 014.237 0 3.11 3.11 0 010 4.286zm-3.69-.483a2.224 2.224 0 003.14 0 2.465 2.465 0 000-3.312 2.224 2.224 0 00-3.14 0 2.465 2.465 0 000 3.312zm7.569 1.233V.526h2.09c.434-.008.854.15 1.174.443a1.454 1.454 0 01.501 1.127 1.26 1.26 0 01-.212.722 1.339 1.339 0 01-.568.472c.28.092.524.267.703.5.185.236.284.529.28.829a1.513 1.513 0 01-.52 1.174c-.336.31-.777.478-1.233.472l-2.215.039zM80.421 3h1.349a.866.866 0 00.674-.28.858.858 0 00.038-1.232.828.828 0 00-.645-.28H80.46L80.421 3zm0 2.59h1.493a.886.886 0 00.693-.298.963.963 0 00.27-.655.963.963 0 00-.963-.963H80.45l-.029 1.916z" fill="#fff"/><path fill-rule="evenodd" clip-rule="evenodd" d="M40.314.482a2.888 2.888 0 00-2.05.852 3.024 3.024 0 000 4.151 2.908 2.908 0 004.1 0 3.014 3.014 0 000-4.15 2.889 2.889 0 00-2.05-.853zM39.13.526a3.082 3.082 0 013.37.674l.002.001a3.207 3.207 0 010 4.418l-.002.002a3.1 3.1 0 01-4.372 0l-.002-.002a3.216 3.216 0 010-4.418l.001-.001A3.081 3.081 0 0139.13.526zM73.68.482a2.89 2.89 0 00-2.049.852 3.024 3.024 0 000 4.151 2.908 2.908 0 004.1 0 3.014 3.014 0 000-4.15 2.89 2.89 0 00-2.05-.853zm-1.184.044a3.082 3.082 0 013.372.674l.001.001a3.207 3.207 0 010 4.418l-.002.002a3.1 3.1 0 01-4.373 0l-.002-.002a3.216 3.216 0 010-4.418l.002-.001a3.083 3.083 0 011.002-.674zm-24.34.2a2.57 2.57 0 00-1.128-.229h-.004a2.85 2.85 0 00-2.906 2.916v.004a2.85 2.85 0 002.906 2.916l.002.096.002-.096c.436.008.87-.081 1.267-.261.333-.158.63-.382.872-.659l-.382-.382a2.38 2.38 0 01-1.767.81 2.282 2.282 0 01-1.668-.663l-.003-.003a2.571 2.571 0 010-3.472l.003-.003a2.281 2.281 0 011.665-.664 2.022 2.022 0 011.617.687l.38-.366a2.57 2.57 0 00-.856-.63zm-1.13 5.8a3.043 3.043 0 01-3.1-3.111 3.045 3.045 0 013.1-3.11 2.763 2.763 0 012.192.997l.058.069-.661.637-.066-.084a1.83 1.83 0 00-1.528-.695h-.007a2.09 2.09 0 00-1.527.606 2.379 2.379 0 000 3.208 2.09 2.09 0 001.527.606h.001a2.186 2.186 0 001.688-.821l.067-.084.658.658-.055.067a2.909 2.909 0 01-.996.777l-.002.001a3.13 3.13 0 01-1.35.278zM82.879 1.04a1.599 1.599 0 00-1.108-.418h-1.995v5.584l2.117-.037h.003c.432.006.849-.154 1.166-.446l.002-.002a1.416 1.416 0 00.487-1.1v-.004a1.214 1.214 0 00-.259-.767v-.001a1.367 1.367 0 00-.657-.468l-.238-.079.23-.1c.213-.094.395-.246.526-.438.132-.197.2-.43.196-.667v-.003a1.358 1.358 0 00-.468-1.052l-.002-.002zm.13-.143a1.791 1.791 0 00-1.24-.467h-2.185v5.972l2.31-.04h.001a1.88 1.88 0 001.297-.497 1.608 1.608 0 00.552-1.247v.002l-.097-.001.097-.003v.002a1.406 1.406 0 00-.3-.887 1.56 1.56 0 00-.553-.453 1.358 1.358 0 00.65-1.183v.002l-.096-.001.096-.002v.002A1.552 1.552 0 0083.01.897zM32.08.43h4.044v5.065h.645v2.118h-.905V6.4h-4.218v1.223h-.905V5.504h.661a2.658 2.658 0 00.678-2.107V.43zm.192.192V3.38a2.852 2.852 0 01-.758 2.287l-.028.03h-.552V7.43h.52V6.207h4.603v1.214h.52V5.687h-.645V.622h-3.66zM49.867.43h4.16v.905h-1.608V6.4h-.935V1.335h-1.617V.43zm.192.192v.52h1.618v5.065h.549V1.142h1.608v-.52h-3.775zM58.094.43h1.089l-2.245 5.002a1.55 1.55 0 01-1.415 1.093h-.005a1.58 1.58 0 01-.615-.133l-.077-.034.25-.884.106.063c.103.06.22.092.338.093h.006a.587.587 0 00.341-.079.808.808 0 00.227-.322l.002-.006.194-.422L54.32.44h1.09l1.36 3.162L58.094.43zm.128.192l-1.45 3.473-1.49-3.463h-.663l1.882 4.17-.229.5c-.06.155-.159.293-.286.401l-.006.005-.007.004a.78.78 0 01-.458.11.877.877 0 01-.32-.065l-.138.49c.148.054.303.083.46.086a1.358 1.358 0 001.239-.962l.002-.006L58.885.622h-.663zM59.775.43h4.372V6.4h-.934V1.335H60.71V6.4h-.934V.43zm.193.192v5.585h.549V1.142h2.889v5.065h.549V.622h-3.987zM65.274.43h.934v2.474h2.696V.43h.934V6.4h-.934V3.79h-2.696V6.4h-.934V.43zm.193.192v5.585h.549v-2.61h3.081v2.61h.549V.622h-.549v2.475h-3.081V.622h-.55zM38.677 1.69a2.32 2.32 0 013.275 0l.003.004a2.562 2.562 0 010 3.442l-.003.003a2.32 2.32 0 01-3.276 0l.068-.068-.07.065a2.561 2.561 0 010-3.442l.002-.004zm.137 3.315a2.128 2.128 0 003 0 2.369 2.369 0 000-3.18 2.128 2.128 0 00-3 0 2.369 2.369 0 000 3.18zm33.23-3.315a2.32 2.32 0 013.274 0l.004.004a2.562 2.562 0 010 3.442l-.004.003a2.321 2.321 0 01-3.275 0l.068-.068-.071.065a2.561 2.561 0 010-3.442l.003-.004zm.137 3.315a2.128 2.128 0 003 0 2.369 2.369 0 000-3.18 2.128 2.128 0 00-3 0 2.368 2.368 0 000 3.18zm9.655-3.892a.925.925 0 01.717.31.953.953 0 01-.041 1.367.964.964 0 01-.744.307h-1.445l.043-1.984h1.47zm.316.253a.731.731 0 00-.312-.06h-1.286l-.034 1.598h1.254a.77.77 0 00.599-.248l.003-.003.003-.003a.761.761 0 00.034-1.094l-.003-.003a.732.732 0 00-.258-.187zm-49.359-.224h2.533v4.584H32.17l.088-.146c.393-.65.58-1.402.535-2.16V1.142zm.193.193v2.077a3.948 3.948 0 01-.479 2.121h2.626V1.335h-2.147zm47.37 2.244h1.558a1.059 1.059 0 011.06 1.059v.001a1.06 1.06 0 01-.296.719.982.982 0 01-.766.33h-1.588l.032-2.11zm.19.192l-.027 1.724h1.398a.79.79 0 00.618-.266l.003-.003a.867.867 0 00.243-.589.867.867 0 00-.867-.866h-1.369z" fill="#fff"/><path d="M1.155 25.272L12.95 13.036 1.164.822c-.314.19-.51.63-.51 1.207v22.048c.005.576.193.984.5 1.195zm12.218-12.574l3.514-3.645L2.577.915a1.54 1.54 0 00-.793-.223l11.588 12.005.002.001zm.001.677L1.75 25.432c.291.005.579-.074.83-.228l14.338-8.16-3.544-3.669zm8.698-1.369L17.31 9.293l-3.61 3.745 3.637 3.767L22.07 14.1c1.007-.575 1.007-1.522.002-2.094z" fill="#fff"/></svg>