<svg width="30" height="29" fill="none" xmlns="http://www.w3.org/2000/svg"><path d="M13.945 5.15c1.638-2.561 4.537-2.86 6.765-2.628 1.73.18 2.035-.33.44-1.022C17.81.048 12.928-.142 9.673 3.112L5.29 7.496c-.246.246-.241.65-.1.969.183.411-.14.98-.564 1.405-.424.423-.992.746-1.404.563-.32-.14-.723-.146-.969.1L.367 12.417c-.49.49-.49 1.291 0 1.78L2.88 16.71c.49.49 1.291.49 1.78 0l1.885-1.884c.246-.246.241-.65.1-.968-.182-.413.14-.98.564-1.405.672-.673 2.198-.891 3.588.373l3.243-3.243c-1.24-1.581-.726-3.44-.095-4.432zm15.58 18.972l-14.163-13.24-3.285 3.285 13.241 14.161c.569.617 1.51.636 2.104.043l2.146-2.147a1.446 1.446 0 00-.043-2.102z" fill="#FC762E"/></svg>