<svg width="134" height="26" fill="none" xmlns="http://www.w3.org/2000/svg"><g clip-path="url(#clip0)" fill="#000"><path d="M71.069.751v11.231c-1.395.613-2.997.97-5.013.97-2.738 0-4.805-1.145-4.805-3.88V.753h-6.665v8.32c0 7.04 5.387 10.006 10.334 10.006 3.237 0 4.237-.306 6.149-.919v7.82h6.665V.751h-6.665zM0 .743h24.975v6.532H0V.743z"/><path d="M15.645 6.545L15.636 26l-6.663-.003.009-19.455 6.663.003zM87.751.795L87.741 26l-6.663-.003.01-25.205 6.663.003zm16.451-.049l-.011 25.205-6.663-.003.01-25.205 6.664.003z"/><path d="M81.078 9.946h22.133v6.68H81.078v-6.68z"/><path fill-rule="evenodd" clip-rule="evenodd" d="M39.257 25.98c7.227 0 13.086-5.816 13.086-12.99S46.483 0 39.257 0C32.03 0 26.171 5.816 26.171 12.99s5.859 12.99 13.086 12.99zm0-6.42c3.656 0 6.62-2.941 6.62-6.57 0-3.63-2.964-6.572-6.62-6.572s-6.62 2.942-6.62 6.572c0 3.629 2.964 6.57 6.62 6.57zm80.831 6.42c7.228 0 13.086-5.816 13.086-12.99S127.316 0 120.088 0c-7.226 0-13.085 5.816-13.085 12.99s5.859 12.99 13.085 12.99zm0-6.42c3.657 0 6.62-2.941 6.62-6.57 0-3.63-2.963-6.572-6.62-6.572-3.655 0-6.619 2.942-6.619 6.572 0 3.629 2.964 6.57 6.619 6.57z"/></g><defs><clipPath id="clip0"><path fill="#fff" d="M0 0h133.174v26H0z"/></clipPath></defs></svg>