<svg width="210" height="41" viewBox="0 0 210 41" fill="none" xmlns="http://www.w3.org/2000/svg">
<path d="M15.7158 39.7691H23.5138V8.57227L15.7158 16.3727V39.7691Z" fill="black"/>
<path d="M60.5073 0.067502C57.8441 0.0478883 55.2036 0.557974 52.7393 1.56809C50.2751 2.57821 48.0362 4.0682 46.153 5.95141C44.2698 7.83463 42.7798 10.0735 41.7697 12.5377C40.7596 15.002 40.2495 17.6425 40.2691 20.3057C40.2691 31.6116 49.1614 40.469 60.5073 40.469C65.8656 40.469 71.0043 38.3404 74.7932 34.5516C78.582 30.7628 80.7106 25.624 80.7106 20.2657C80.7106 14.9075 78.582 9.76873 74.7932 5.97989C71.0043 2.19105 65.8656 0.0625 60.5073 0.0625V0.067502ZM60.5073 32.5486C53.7612 32.5486 48.6642 27.2867 48.6642 20.3057C48.6642 13.2848 53.7562 7.98789 60.5073 7.98789C67.1485 7.98789 72.3504 13.3972 72.3504 20.3057C72.3504 27.1717 67.1485 32.5486 60.5073 32.5486Z" fill="black"/>
<path d="M204.104 5.95139C201.272 3.10995 197.659 1.1743 193.725 0.390264C189.79 -0.393768 185.712 0.00919582 182.007 1.54798C178.302 3.08676 175.138 5.69192 172.917 9.03262C170.695 12.3733 169.517 16.2988 169.531 20.3105C169.531 31.6164 178.424 40.4738 189.77 40.4738C193.769 40.4723 197.677 39.2861 201.003 37.065C204.328 34.8439 206.921 31.6874 208.454 27.994C209.987 24.3007 210.391 20.2359 209.616 16.3128C208.841 12.3898 206.921 8.78425 204.099 5.95139H204.104ZM189.775 32.5484C183.029 32.5484 177.931 27.2865 177.931 20.3055C177.931 13.2846 183.024 7.9877 189.775 7.9877C196.416 7.9877 201.618 13.3971 201.618 20.3055C201.618 27.1715 196.416 32.5484 189.775 32.5484Z" fill="black"/>
<path d="M38.9948 0.771484H0V8.56945H38.9948V0.771484Z" fill="black"/>
<path d="M119.046 0.775391H111.245V39.7702H119.046V0.775391Z" fill="black"/>
<path d="M156.871 16.3713H133.472V0.775391H125.674V39.7702H133.472V24.1718H156.871V39.7702H164.669V0.775391H156.871V16.3713Z" fill="black"/>
<path d="M111.255 16.3722H91.7667V0.78125H83.9487V16.3722C83.9487 18.441 84.7706 20.4251 86.2334 21.8879C87.6963 23.3508 89.6804 24.1726 91.7492 24.1726H103.447L111.255 16.3722Z" fill="black"/>
</svg>
